/* XPM */
static char *fqterm[] = {
/* columns rows colors chars-per-pixel */
"32 32 256 2",
"   c #08FD13220D0C",
".  c #13C918C108E8",
"X  c #022A138E178D",
"o  c #1B4321D4151E",
"O  c #1BC621651B79",
"+  c #216627471411",
"@  c #23FB2C5612A7",
"#  c #28072D3D14CC",
"$  c #2C7E35CD1214",
"%  c #2D0D38981280",
"&  c #21B63A481860",
"*  c #30B83D121387",
"=  c #309036411694",
"-  c #00001990272D",
";  c #0F2D1945257E",
":  c #01B01C5833CE",
">  c #06991F4C3E0D",
",  c #163C2C35295E",
"<  c #19CF2C952AC5",
"1  c #14282D83240B",
"2  c #14D331E32DB1",
"3  c #1B0A36232DBA",
"4  c #19EC3CD62DEF",
"5  c #000024B7320E",
"6  c #1C1A39003094",
"7  c #211D331233F1",
"8  c #262736183B00",
"9  c #305536E93A4D",
"0  c #3615439614CC",
"q  c #3D64485E17A6",
"w  c #195641EA334D",
"e  c #3E44499C21F5",
"r  c #43C74EC01BD9",
"t  c #471D57B119BE",
"y  c #4BD35CAC1CED",
"u  c #4CE855421CA2",
"i  c #551A68641F0F",
"p  c #42C34E2F260A",
"a  c #46D1525B260D",
"s  c #472951442819",
"d  c #4B33553F2AD0",
"f  c #4E51593C2D00",
"g  c #50505BEB2E97",
"h  c #50B45DD82FB5",
"j  c #4FC964F42157",
"k  c #5B9C6AED2409",
"l  c #5EB46D6F295D",
"z  c #555A65932164",
"x  c #5A4978592754",
"c  c #6780787D26E0",
"v  c #652274E029A9",
"b  c #6CEC7D932BA4",
"n  c #60BE705925D5",
"m  c #6AAE78D237F2",
"M  c #00000D744E87",
"N  c #000A0EC15095",
"B  c #00EF127F533E",
"V  c #01251995569C",
"C  c #0009174958A9",
"Z  c #016E1C895BB5",
"A  c #0B141CC15C46",
"S  c #01AC20584ADC",
"D  c #0B0F22674454",
"F  c #1AE62B564192",
"G  c #0F9B28084807",
"H  c #143428284B77",
"J  c #0000330947C0",
"K  c #0000244554FB",
"L  c #000021335FBF",
"P  c #00002A995B2D",
"I  c #07B220F95C1C",
"U  c #000032C75ACD",
"Y  c #0000362D538F",
"T  c #25AD3526549C",
"R  c #00B323786235",
"E  c #0BF223F563A2",
"W  c #017B28836488",
"Q  c #0B4D2AE9664F",
"!  c #02DC2B666A34",
"~  c #0CB52C516AD9",
"^  c #124B25E163A1",
"/  c #18C226C761DA",
"(  c #184D280563AD",
")  c #13402C616A68",
"_  c #1A132DB369B0",
"`  c #16AC27B36425",
"'  c #00EE326B6C90",
"]  c #008438EF6D3E",
"[  c #1947326E6EF4",
"{  c #14E8318F6E48",
"}  c #00013D2E74B8",
"|  c #00003F447841",
" . c #0CCC3E0377D1",
".. c #1E353504702F",
"X. c #19E53B1875F5",
"o. c #11263976754A",
"O. c #24702F88677A",
"+. c #20F033CB6DD0",
"@. c #2FAF3B6F6FC8",
"#. c #241F3B6374F7",
"$. c #2B483C3F7334",
"%. c #256D374B7042",
"&. c #3AD9416A4891",
"*. c #390643D15765",
"=. c #0000472C6042",
"-. c #0000400B7633",
";. c #027D47917D32",
":. c #2EC344FC7BE9",
">. c #262443D87CBA",
",. c #2FCB407776A8",
"<. c #323145BE7B79",
"1. c #36144A1D7EE8",
"2. c #393449167B99",
"3. c #3F9155F37B14",
"4. c #6A8383A0298C",
"5. c #69E1874B2D26",
"6. c #724083CB2CDB",
"7. c #74AB8A6F2D88",
"8. c #78748A632DC8",
"9. c #7D8A91AD3067",
"0. c #8330956630D6",
"q. c #8A179E08338B",
"w. c #989499F52FE3",
"e. c #92519C6631B0",
"r. c #8B87A2FD34F7",
"t. c #8D11AA2336B2",
"y. c #8BB4ADCA37FE",
"u. c #9652AC9539AC",
"i. c #960BAA063BB8",
"p. c #8DB7B2983A0F",
"a. c #94F6B4323B0B",
"s. c #9E51B33E3CB9",
"d. c #969ABB7A3E6F",
"f. c #9A9EB9E33F05",
"g. c #A996AF1D36E2",
"h. c #A1A3BA7D3CE3",
"j. c #A133B7FA3C92",
"k. c #A869C1763CD1",
"l. c #D92CCD9B3A2D",
"z. c #F5F1D1233857",
"x. c #85C89A3C4429",
"c. c #92B79F1E5D50",
"v. c #91FCA35047B6",
"b. c #98FABE7C4006",
"n. c #9952A8015972",
"m. c #9770A6EA54E0",
"M. c #9C5AC01A57FD",
"N. c #980BBD1B516B",
"B. c #A2A5B5B34D50",
"V. c #A66FBC81483D",
"C. c #A5DCBCD8546F",
"Z. c #A98EBD8A5413",
"A. c #94909F8266C5",
"S. c #9837A4F26102",
"D. c #9CD2A727702E",
"F. c #9C6DC3F14219",
"G. c #9FDDC29F5E08",
"H. c #A5D8C3E14279",
"J. c #A9B9C80148A5",
"K. c #B5E3CAB449F8",
"L. c #A7B6D52143E2",
"P. c #AAF6D62A463F",
"I. c #A738DB1945F9",
"U. c #AA9CDC7746F5",
"Y. c #AD4CD35D4946",
"T. c #AA8DDCF8480B",
"R. c #BFD8DDBF4799",
"E. c #BB64D4A34582",
"W. c #A805C7A85819",
"Q. c #AFCAD1245169",
"!. c #A63EE2744A5A",
"~. c #A9B1E4E958C1",
"^. c #A700C6016990",
"/. c #AE99CAD5778A",
"(. c #AEA0E51568A3",
"). c #B174E3EC6B5B",
"_. c #B674EAFA7B66",
"`. c #CC20D54844F9",
"'. c #CE03D8D4463A",
"]. c #0000517F81FE",
"[. c #00005F95866A",
"{. c #000059568A9D",
"}. c #39984DA681A1",
"|. c #34564C4E8118",
" X c #3D6B51D684BC",
".X c #36A756BD89E8",
"XX c #000062598AD6",
"oX c #00006F2697F0",
"OX c #40FF548786A0",
"+X c #41A35669886A",
"@X c #44465A2D8B24",
"#X c #49835D388D1E",
"$X c #49CA5C6B832F",
"%X c #4C4A609C8FA4",
"&X c #43DC644E8E6D",
"*X c #5556643D88B2",
"=X c #4E8861E39080",
"-X c #4898664394C6",
";X c #522E65679303",
":X c #55E6690A95BE",
">X c #5B7C6DCC9911",
",X c #57DA6A409687",
"<X c #5E91704F9ABE",
"1X c #62FB6F9B90FD",
"2X c #62F774489DA0",
"3X c #6CE278489718",
"4X c #678679CDA208",
"5X c #6C0E7C49A360",
"6X c #700F7FC3A5C6",
"7X c #777F82139DEB",
"8X c #71F681A6A6F1",
"9X c #76C785F5AA71",
"0X c #7C038A89AD38",
"qX c #A884B06B8712",
"wX c #B37ABA1B9703",
"eX c #806D8E7CB01F",
"rX c #82588BC6A505",
"tX c #8D139580AC21",
"yX c #848E922AB2CA",
"uX c #898A96A8B5B4",
"iX c #8B5F98B0B72E",
"pX c #8EE09C24BA54",
"aX c #94FB9EDBB725",
"sX c #98CDA425BF53",
"dX c #9EB1A579B720",
"fX c #A60CAFB1B774",
"gX c #A744AD58BCD8",
"hX c #B694CE7D84C9",
"jX c #BC94D25C9020",
"kX c #CB34DA36AA88",
"lX c #CAE4F714A4D6",
"zX c #D6DDE76AB5BB",
"xX c #9B80A6D4C185",
"cX c #A269AD77C5FE",
"vX c #ABDBB600CC4A",
"bX c #AF80B8B7CE81",
"nX c #AF66B4F5C251",
"mX c #B421BD7EC6C1",
"MX c #B3F0BD63D104",
"NX c #BD69C329CC59",
"BX c #BA72C417D62D",
"VX c #B752C138D3C6",
"CX c #C371CBFEDBF8",
"ZX c #C2A5C99ED117",
"AX c #C953D0ACDF6E",
"SX c #E9E5FF77DED4",
"DX c #CED2D61CE33B",
"FX c #D263DA7FE651",
"GX c #D796E1AAE876",
"HX c #D9D1E24CEAED",
"JX c #DBD1FFA0E2FC",
"KX c #E293E80BEF37",
"LX c #E4C7EA9DF1A0",
"PX c #ED89FFFFF4E2",
"IX c #F963FD59FD34",
"UX c None",
/* pixels */
"UXUXUXUXUXUXUXUXUXUXUXUXUXUXUXUXUXUXUXUXUXUXUXUXUXUXUXUXUXUXUXUX",
"UXUXUXUXUXUXUXUXUXUXUXUXUXUXUXUXUXUXUXUXUXUXUXUXUXUXUXUXUXUXUXUX",
"UXUXUXUXUXUXUXUXUXUXUXUXUXUXUXUXUXUXUXUXUXUXUXUXUXUXUXUXUXUXUXUX",
"UXUXUXUXUXT.T.T.T.T.T.I.I.L.L.L.L.L.L.I.!.~.(._.lXSXIXUXUXUXUXUX",
"UXUXUXt.y a h g g g f f d d d s s s p p p p e r x.zXPXJXUXUXUXUX",
"UXUXa.% &.fXZXNXNXmXnXgXdXaXtXrX7X3X1X*X*X$X3.F . x._.).UXUXUXUX",
"UXUX4.O mXIXLXFXDXAXCXVXbXcXxXpXyX9X5X2X>X:X-X&X; z J.k.UXUXUXUX",
"UXUXi 9 GXKXBXVXMXbXvXcXsXpXyX0X8X4X<X:X;X%X#X&XF q V.u.UXUXUXUX",
"UXUXt &.HXCXcXcXxXsXaXiXyX0X8X5X2X>X;X%X#X@X@X.XG = B.q.UXUXUXUX",
"UXUXq *.FXMXiXuXyXeX0X9X6X4X2X>X:X=X#X@XOX X X|.S # m.9.8.UXUXUX",
"UXUX0 *.CXcX8X5X5X4X2X2X>X,X;X=X#X@XOX X}.2.2.X.S + n.7.b UXUXUX",
"UXUX* *.vXuX,X:X:X;X;X=X#X#X@X+X X X}.1.<.<.$.Q K o S.b c UXUXUX",
"UXUX% T pX5X+X+XOX X X X X X}.}.1.1.<.<.,.$.^ R K o D.v n UXUXUX",
"UXUX$ T 4X;X<.<.:.:.:.:.:.:.:.:.:.:.$.$.$.( B L P O wXm k UXUXUX",
"UXUX$ H @X|.#.#.#.#.#.#.#.#.#.#.#.%.%.+.( B B R P O qXm k UXUXUX",
"UXUX% G >.#.[ [ [ [ [ [ ......+.+.+._ ^ B B B R P o A.l k UXUXUX",
"UXUX* D X.{ ) ) ) ) ) ) _ _ _ _ _ ` A B N B B W U o c.l k UXUXUX",
"UXUX0 > o.~ ~ Q E E E ^ ^ ^ ^ ^ A B N B B B V ' U + c.l k UXUXUX",
"UXUXq :  .~ Q E E E E E E A A B B N N O.@.V Z } U @ m.n l UXUXUX",
"UXUXt : ;.' ! R Z Z Z C C B B N N M M / 2.I W ;.Y $ m.v v UXUXUX",
"UXUXz - ].| ! R Z C C B B B N N M M M B V Q ] {.J 0 v.b 6.UXUXUX",
"UXUX4.X [.{.| ' R Z C B B B B N B B B V R ] ].oX5 u v.8.0.UXUXUX",
"UXUXy.. J XX].-.' W R Z Z Z Z Z Z L W ' } ].XX=.  6.i.r.q.UXUXUX",
"UXUXP.4.@ 1 2 2 , , < < 7 8 8 7 3 3 3 4 4 w 4 & x u.s.h.c UXUXUX",
"UXUXU.P.J.B.B.C.Z.C.W.^.hXkXkXjX/.^.G.M.N.K.`.f.a.u.H.7.UXUXUXUX",
"UXUXUXU.R.'.'.'.'.E.P.Y.Y.Q.Q.J.H.V.h.j.s.l.z.g.u.a.5.UXUXUXUXUX",
"UXUXUXp.F.F.F.F.b.d.d.a.a.y.t.t.t.r.r.q.q.e.w.0.9.j UXUXUXUXUXUX",
"UXUXUXUXUXUXUXUXUXUXUXUXUXUXUXUXUXUXUXUXUXUXUXUXUXUXUXUXUXUXUXUX",
"UXUXUXUXUXUXUXUXUXUXUXUXUXUXUXUXUXUXUXUXUXUXUXUXUXUXUXUXUXUXUXUX",
"UXUXUXUXUXUXUXUXUXUXUXUXUXUXUXUXUXUXUXUXUXUXUXUXUXUXUXUXUXUXUXUX",
"UXUXUXUXUXUXUXUXUXUXUXUXUXUXUXUXUXUXUXUXUXUXUXUXUXUXUXUXUXUXUXUX",
"UXUXUXUXUXUXUXUXUXUXUXUXUXUXUXUXUXUXUXUXUXUXUXUXUXUXUXUXUXUXUXUX"
};
